<?xml version="1.0" encoding="UTF-8" standalone="yes"?>
<svg xmlns="http://www.w3.org/2000/svg" width="320" height="320" viewBox="0 0 320 320">
  <g width="320" height="320" viewBox="0 0 320 320" xmlns="http://www.w3.org/2000/svg" shape-rendering="crispEdges">
    <rect width="100%" height="100%" fill="#e1d7d5"/>
  </g>
  <g width="320" height="320" viewBox="0 0 320 320" xmlns="http://www.w3.org/2000/svg" shape-rendering="crispEdges">
    <rect width="100%" height="100%" fill="none"/>
    <rect width="140" height="10" x="90" y="210" fill="#4b4949" shape-rendering="crispEdges"/>
    <rect width="140" height="10" x="90" y="220" fill="#4b4949" shape-rendering="crispEdges"/>
    <rect width="140" height="10" x="90" y="230" fill="#4b4949" shape-rendering="crispEdges"/>
    <rect width="140" height="10" x="90" y="240" fill="#4b4949" shape-rendering="crispEdges"/>
    <rect width="20" height="10" x="90" y="250" fill="#4b4949" shape-rendering="crispEdges"/>
    <rect width="110" height="10" x="120" y="250" fill="#4b4949" shape-rendering="crispEdges"/>
    <rect width="20" height="10" x="90" y="260" fill="#4b4949" shape-rendering="crispEdges"/>
    <rect width="110" height="10" x="120" y="260" fill="#4b4949" shape-rendering="crispEdges"/>
    <rect width="20" height="10" x="90" y="270" fill="#4b4949" shape-rendering="crispEdges"/>
    <rect width="110" height="10" x="120" y="270" fill="#4b4949" shape-rendering="crispEdges"/>
    <rect width="20" height="10" x="90" y="280" fill="#4b4949" shape-rendering="crispEdges"/>
    <rect width="110" height="10" x="120" y="280" fill="#4b4949" shape-rendering="crispEdges"/>
    <rect width="20" height="10" x="90" y="290" fill="#4b4949" shape-rendering="crispEdges"/>
    <rect width="110" height="10" x="120" y="290" fill="#4b4949" shape-rendering="crispEdges"/>
    <rect width="20" height="10" x="90" y="300" fill="#4b4949" shape-rendering="crispEdges"/>
    <rect width="110" height="10" x="120" y="300" fill="#4b4949" shape-rendering="crispEdges"/>
    <rect width="20" height="10" x="90" y="310" fill="#4b4949" shape-rendering="crispEdges"/>
    <rect width="110" height="10" x="120" y="310" fill="#4b4949" shape-rendering="crispEdges"/>
  </g>
  <g width="320" height="320" viewBox="0 0 320 320" xmlns="http://www.w3.org/2000/svg" shape-rendering="crispEdges">
    <rect width="100%" height="100%" fill="none"/>
    <rect width="20" height="10" x="130" y="230" fill="#ffffff" shape-rendering="crispEdges"/>
    <rect width="20" height="10" x="170" y="230" fill="#027c92" shape-rendering="crispEdges"/>
    <rect width="20" height="10" x="130" y="240" fill="#ffffff" shape-rendering="crispEdges"/>
    <rect width="20" height="10" x="170" y="240" fill="#027c92" shape-rendering="crispEdges"/>
    <rect width="10" height="10" x="130" y="250" fill="#ffffff" shape-rendering="crispEdges"/>
    <rect width="10" height="10" x="150" y="250" fill="#ffffff" shape-rendering="crispEdges"/>
    <rect width="20" height="10" x="170" y="250" fill="#027c92" shape-rendering="crispEdges"/>
    <rect width="30" height="10" x="130" y="270" fill="#e8705b" shape-rendering="crispEdges"/>
    <rect width="10" height="10" x="170" y="270" fill="#ffc110" shape-rendering="crispEdges"/>
    <rect width="20" height="10" x="130" y="280" fill="#e8705b" shape-rendering="crispEdges"/>
    <rect width="10" height="10" x="170" y="280" fill="#ffc110" shape-rendering="crispEdges"/>
    <rect width="10" height="10" x="130" y="290" fill="#e8705b" shape-rendering="crispEdges"/>
    <rect width="20" height="10" x="170" y="290" fill="#ffc110" shape-rendering="crispEdges"/>
  </g>
  <g width="320" height="320" viewBox="0 0 320 320" xmlns="http://www.w3.org/2000/svg" shape-rendering="crispEdges">
    <rect width="100%" height="100%" fill="none"/>
    <rect width="40" height="10" x="140" y="10" fill="#ffffff" shape-rendering="crispEdges"/>
    <rect width="20" height="10" x="120" y="20" fill="#ffffff" shape-rendering="crispEdges"/>
    <rect width="20" height="10" x="140" y="20" fill="#f9e8dd" shape-rendering="crispEdges"/>
    <rect width="40" height="10" x="160" y="20" fill="#ffffff" shape-rendering="crispEdges"/>
    <rect width="10" height="10" x="110" y="30" fill="#ffffff" shape-rendering="crispEdges"/>
    <rect width="10" height="10" x="120" y="30" fill="#f9e8dd" shape-rendering="crispEdges"/>
    <rect width="10" height="10" x="130" y="30" fill="#ffffff" shape-rendering="crispEdges"/>
    <rect width="20" height="10" x="140" y="30" fill="#f9e8dd" shape-rendering="crispEdges"/>
    <rect width="20" height="10" x="160" y="30" fill="#ffffff" shape-rendering="crispEdges"/>
    <rect width="20" height="10" x="180" y="30" fill="#f9e8dd" shape-rendering="crispEdges"/>
    <rect width="10" height="10" x="200" y="30" fill="#ffffff" shape-rendering="crispEdges"/>
    <rect width="120" height="10" x="100" y="40" fill="#ffffff" shape-rendering="crispEdges"/>
    <rect width="10" height="10" x="90" y="50" fill="#ffffff" shape-rendering="crispEdges"/>
    <rect width="10" height="10" x="100" y="50" fill="#f9e8dd" shape-rendering="crispEdges"/>
    <rect width="20" height="10" x="110" y="50" fill="#ffffff" shape-rendering="crispEdges"/>
    <rect width="10" height="10" x="130" y="50" fill="#f9e8dd" shape-rendering="crispEdges"/>
    <rect width="20" height="10" x="140" y="50" fill="#ffffff" shape-rendering="crispEdges"/>
    <rect width="10" height="10" x="160" y="50" fill="#f9e8dd" shape-rendering="crispEdges"/>
    <rect width="60" height="10" x="170" y="50" fill="#ffffff" shape-rendering="crispEdges"/>
    <rect width="10" height="10" x="90" y="60" fill="#ffffff" shape-rendering="crispEdges"/>
    <rect width="10" height="10" x="100" y="60" fill="#f9e8dd" shape-rendering="crispEdges"/>
    <rect width="60" height="10" x="110" y="60" fill="#ffffff" shape-rendering="crispEdges"/>
    <rect width="20" height="10" x="170" y="60" fill="#f9e8dd" shape-rendering="crispEdges"/>
    <rect width="20" height="10" x="190" y="60" fill="#ffffff" shape-rendering="crispEdges"/>
    <rect width="10" height="10" x="210" y="60" fill="#f9e8dd" shape-rendering="crispEdges"/>
    <rect width="10" height="10" x="220" y="60" fill="#ffffff" shape-rendering="crispEdges"/>
    <rect width="10" height="10" x="80" y="70" fill="#ffffff" shape-rendering="crispEdges"/>
    <rect width="10" height="10" x="90" y="70" fill="#f9e8dd" shape-rendering="crispEdges"/>
    <rect width="20" height="10" x="100" y="70" fill="#ffffff" shape-rendering="crispEdges"/>
    <rect width="10" height="10" x="120" y="70" fill="#f9e8dd" shape-rendering="crispEdges"/>
    <rect width="40" height="10" x="130" y="70" fill="#ffffff" shape-rendering="crispEdges"/>
    <rect width="20" height="10" x="170" y="70" fill="#f9e8dd" shape-rendering="crispEdges"/>
    <rect width="30" height="10" x="190" y="70" fill="#ffffff" shape-rendering="crispEdges"/>
    <rect width="10" height="10" x="220" y="70" fill="#f9e8dd" shape-rendering="crispEdges"/>
    <rect width="10" height="10" x="230" y="70" fill="#ffffff" shape-rendering="crispEdges"/>
    <rect width="10" height="10" x="80" y="80" fill="#ffffff" shape-rendering="crispEdges"/>
    <rect width="10" height="10" x="90" y="80" fill="#f9e8dd" shape-rendering="crispEdges"/>
    <rect width="120" height="10" x="100" y="80" fill="#ffffff" shape-rendering="crispEdges"/>
    <rect width="10" height="10" x="220" y="80" fill="#f9e8dd" shape-rendering="crispEdges"/>
    <rect width="10" height="10" x="230" y="80" fill="#ffffff" shape-rendering="crispEdges"/>
    <rect width="10" height="10" x="80" y="90" fill="#ffffff" shape-rendering="crispEdges"/>
    <rect width="10" height="10" x="90" y="90" fill="#f9e8dd" shape-rendering="crispEdges"/>
    <rect width="110" height="10" x="100" y="90" fill="#ffffff" shape-rendering="crispEdges"/>
    <rect width="10" height="10" x="210" y="90" fill="#f9e8dd" shape-rendering="crispEdges"/>
    <rect width="20" height="10" x="220" y="90" fill="#ffffff" shape-rendering="crispEdges"/>
    <rect width="160" height="10" x="70" y="100" fill="#ffffff" shape-rendering="crispEdges"/>
    <rect width="10" height="10" x="230" y="100" fill="#f9e8dd" shape-rendering="crispEdges"/>
    <rect width="10" height="10" x="240" y="100" fill="#ffffff" shape-rendering="crispEdges"/>
    <rect width="50" height="10" x="70" y="110" fill="#ffffff" shape-rendering="crispEdges"/>
    <rect width="10" height="10" x="120" y="110" fill="#f9e8dd" shape-rendering="crispEdges"/>
    <rect width="100" height="10" x="130" y="110" fill="#ffffff" shape-rendering="crispEdges"/>
    <rect width="10" height="10" x="230" y="110" fill="#f9e8dd" shape-rendering="crispEdges"/>
    <rect width="10" height="10" x="240" y="110" fill="#ffffff" shape-rendering="crispEdges"/>
    <rect width="20" height="10" x="70" y="120" fill="#ffffff" shape-rendering="crispEdges"/>
    <rect width="10" height="10" x="90" y="120" fill="#f9e8dd" shape-rendering="crispEdges"/>
    <rect width="100" height="10" x="100" y="120" fill="#ffffff" shape-rendering="crispEdges"/>
    <rect width="10" height="10" x="200" y="120" fill="#f9e8dd" shape-rendering="crispEdges"/>
    <rect width="20" height="10" x="210" y="120" fill="#ffffff" shape-rendering="crispEdges"/>
    <rect width="10" height="10" x="230" y="120" fill="#f9e8dd" shape-rendering="crispEdges"/>
    <rect width="10" height="10" x="240" y="120" fill="#ffffff" shape-rendering="crispEdges"/>
    <rect width="20" height="10" x="70" y="130" fill="#ffffff" shape-rendering="crispEdges"/>
    <rect width="10" height="10" x="90" y="130" fill="#f9e8dd" shape-rendering="crispEdges"/>
    <rect width="100" height="10" x="100" y="130" fill="#ffffff" shape-rendering="crispEdges"/>
    <rect width="10" height="10" x="200" y="130" fill="#f9e8dd" shape-rendering="crispEdges"/>
    <rect width="20" height="10" x="210" y="130" fill="#ffffff" shape-rendering="crispEdges"/>
    <rect width="10" height="10" x="230" y="130" fill="#f9e8dd" shape-rendering="crispEdges"/>
    <rect width="10" height="10" x="240" y="130" fill="#ffffff" shape-rendering="crispEdges"/>
    <rect width="180" height="10" x="70" y="140" fill="#ffffff" shape-rendering="crispEdges"/>
    <rect width="180" height="10" x="70" y="150" fill="#ffffff" shape-rendering="crispEdges"/>
    <rect width="140" height="10" x="70" y="160" fill="#ffffff" shape-rendering="crispEdges"/>
    <rect width="20" height="10" x="210" y="160" fill="#f9e8dd" shape-rendering="crispEdges"/>
    <rect width="20" height="10" x="230" y="160" fill="#ffffff" shape-rendering="crispEdges"/>
    <rect width="160" height="10" x="80" y="170" fill="#ffffff" shape-rendering="crispEdges"/>
    <rect width="30" height="10" x="80" y="180" fill="#ffffff" shape-rendering="crispEdges"/>
    <rect width="10" height="10" x="110" y="180" fill="#f9e8dd" shape-rendering="crispEdges"/>
    <rect width="80" height="10" x="120" y="180" fill="#ffffff" shape-rendering="crispEdges"/>
    <rect width="10" height="10" x="200" y="180" fill="#f9e8dd" shape-rendering="crispEdges"/>
    <rect width="30" height="10" x="210" y="180" fill="#ffffff" shape-rendering="crispEdges"/>
    <rect width="50" height="10" x="90" y="190" fill="#ffffff" shape-rendering="crispEdges"/>
    <rect width="20" height="10" x="140" y="190" fill="#eed811" shape-rendering="crispEdges"/>
    <rect width="70" height="10" x="160" y="190" fill="#ffffff" shape-rendering="crispEdges"/>
    <rect width="120" height="10" x="100" y="200" fill="#ffffff" shape-rendering="crispEdges"/>
    <rect width="50" height="10" x="120" y="210" fill="#ffffff" shape-rendering="crispEdges"/>
    <rect width="10" height="10" x="170" y="210" fill="#f9e8dd" shape-rendering="crispEdges"/>
    <rect width="20" height="10" x="180" y="210" fill="#ffffff" shape-rendering="crispEdges"/>
  </g>
  <g width="320" height="320" viewBox="0 0 320 320" xmlns="http://www.w3.org/2000/svg" shape-rendering="crispEdges">
    <rect width="100%" height="100%" fill="none"/>
    <rect width="60" height="10" x="100" y="110" fill="#068940" shape-rendering="crispEdges"/>
    <rect width="60" height="10" x="170" y="110" fill="#257ced" shape-rendering="crispEdges"/>
    <rect width="10" height="10" x="100" y="120" fill="#068940" shape-rendering="crispEdges"/>
    <rect width="20" height="10" x="110" y="120" fill="#ffffff" shape-rendering="crispEdges"/>
    <rect width="20" height="10" x="130" y="120" fill="#000000" shape-rendering="crispEdges"/>
    <rect width="10" height="10" x="150" y="120" fill="#068940" shape-rendering="crispEdges"/>
    <rect width="10" height="10" x="170" y="120" fill="#257ced" shape-rendering="crispEdges"/>
    <rect width="20" height="10" x="180" y="120" fill="#ffffff" shape-rendering="crispEdges"/>
    <rect width="20" height="10" x="200" y="120" fill="#000000" shape-rendering="crispEdges"/>
    <rect width="10" height="10" x="220" y="120" fill="#257ced" shape-rendering="crispEdges"/>
    <rect width="30" height="10" x="70" y="130" fill="#254efb" shape-rendering="crispEdges"/>
    <rect width="10" height="10" x="100" y="130" fill="#068940" shape-rendering="crispEdges"/>
    <rect width="20" height="10" x="110" y="130" fill="#ffffff" shape-rendering="crispEdges"/>
    <rect width="20" height="10" x="130" y="130" fill="#000000" shape-rendering="crispEdges"/>
    <rect width="10" height="10" x="150" y="130" fill="#068940" shape-rendering="crispEdges"/>
    <rect width="10" height="10" x="160" y="130" fill="#254efb" shape-rendering="crispEdges"/>
    <rect width="10" height="10" x="170" y="130" fill="#257ced" shape-rendering="crispEdges"/>
    <rect width="20" height="10" x="180" y="130" fill="#ffffff" shape-rendering="crispEdges"/>
    <rect width="20" height="10" x="200" y="130" fill="#000000" shape-rendering="crispEdges"/>
    <rect width="10" height="10" x="220" y="130" fill="#257ced" shape-rendering="crispEdges"/>
    <rect width="10" height="10" x="70" y="140" fill="#257ced" shape-rendering="crispEdges"/>
    <rect width="10" height="10" x="100" y="140" fill="#068940" shape-rendering="crispEdges"/>
    <rect width="20" height="10" x="110" y="140" fill="#ffffff" shape-rendering="crispEdges"/>
    <rect width="20" height="10" x="130" y="140" fill="#000000" shape-rendering="crispEdges"/>
    <rect width="10" height="10" x="150" y="140" fill="#068940" shape-rendering="crispEdges"/>
    <rect width="10" height="10" x="170" y="140" fill="#257ced" shape-rendering="crispEdges"/>
    <rect width="20" height="10" x="180" y="140" fill="#ffffff" shape-rendering="crispEdges"/>
    <rect width="20" height="10" x="200" y="140" fill="#000000" shape-rendering="crispEdges"/>
    <rect width="10" height="10" x="220" y="140" fill="#257ced" shape-rendering="crispEdges"/>
    <rect width="10" height="10" x="70" y="150" fill="#257ced" shape-rendering="crispEdges"/>
    <rect width="10" height="10" x="100" y="150" fill="#068940" shape-rendering="crispEdges"/>
    <rect width="20" height="10" x="110" y="150" fill="#ffffff" shape-rendering="crispEdges"/>
    <rect width="20" height="10" x="130" y="150" fill="#000000" shape-rendering="crispEdges"/>
    <rect width="10" height="10" x="150" y="150" fill="#068940" shape-rendering="crispEdges"/>
    <rect width="10" height="10" x="170" y="150" fill="#257ced" shape-rendering="crispEdges"/>
    <rect width="20" height="10" x="180" y="150" fill="#ffffff" shape-rendering="crispEdges"/>
    <rect width="20" height="10" x="200" y="150" fill="#000000" shape-rendering="crispEdges"/>
    <rect width="10" height="10" x="220" y="150" fill="#257ced" shape-rendering="crispEdges"/>
    <rect width="60" height="10" x="100" y="160" fill="#068940" shape-rendering="crispEdges"/>
    <rect width="60" height="10" x="170" y="160" fill="#257ced" shape-rendering="crispEdges"/>
  </g>
</svg>